<?xml version="1.0" encoding="UTF-8" standalone="no"?>
<!-- Created with Inkscape (http://www.inkscape.org/) -->

<svg
   width="88.288383mm"
   height="77.875954mm"
   viewBox="0 0 88.288383 77.875954"
   version="1.1"
   id="svg1"
   xml:space="preserve"
   inkscape:version="1.3 (0e150ed, 2023-07-21)"
   sodipodi:docname="destructions.svg"
   xmlns:inkscape="http://www.inkscape.org/namespaces/inkscape"
   xmlns:sodipodi="http://sodipodi.sourceforge.net/DTD/sodipodi-0.dtd"
   xmlns="http://www.w3.org/2000/svg"
   xmlns:svg="http://www.w3.org/2000/svg"><sodipodi:namedview
     id="namedview1"
     pagecolor="#ffffff"
     bordercolor="#000000"
     borderopacity="0.25"
     inkscape:showpageshadow="2"
     inkscape:pageopacity="0.0"
     inkscape:pagecheckerboard="0"
     inkscape:deskcolor="#d1d1d1"
     inkscape:document-units="mm"
     inkscape:zoom="0.64620032"
     inkscape:cx="337.35669"
     inkscape:cy="-19.343847"
     inkscape:window-width="1512"
     inkscape:window-height="862"
     inkscape:window-x="0"
     inkscape:window-y="34"
     inkscape:window-maximized="1"
     inkscape:current-layer="layer1" /><defs
     id="defs1" /><g
     inkscape:label="Layer 1"
     inkscape:groupmode="layer"
     id="layer1"
     transform="translate(9.0545151,-173.11368)"><path
       style="fill:none;stroke:#ffffff;stroke-width:1;stroke-linecap:round;stroke-linejoin:round;stroke-miterlimit:3.9;stroke-dasharray:none"
       d="m 36.96536,221.95013 0.15797,3.79132 -8.214524,3.00146 -9.004382,-1.57972 -0.631886,-16.90296 9.320326,3.63334 8.84641,-3.79131 v 2.84349"
       id="path1" /><path
       style="fill:none;stroke:#ffffff;stroke-width:1;stroke-linecap:round;stroke-linejoin:round;stroke-miterlimit:3.9;stroke-dasharray:none"
       d="m 36.01753,214.8414 2.685518,-1.57971"
       id="path2" /><path
       style="fill:none;stroke:#ffffff;stroke-width:1;stroke-linecap:round;stroke-linejoin:round;stroke-miterlimit:3.9;stroke-dasharray:none"
       d="m 36.01753,218.15881 2.369574,-0.94783"
       id="path3" /><path
       style="fill:none;stroke:#ffffff;stroke-width:1;stroke-linecap:round;stroke-linejoin:round;stroke-miterlimit:3.9;stroke-dasharray:none"
       d="m 36.01753,221.79216 3.475376,-1.73769 c 3.10332,-1.55166 5.878131,-7.13635 -2.185168,-16.70811 -4.331674,-5.14203 -10.911123,-9.273 -13.454023,-9.51518 l 2.053631,-11.21599 c 1.331995,0.60545 3.475376,0.31595 3.475376,0.31595 -1.210905,-7.14434 -10.088931,-10.36528 -14.375418,-9.00439 -10.4130639,3.30599 -2.75928,17.088 -3.001461,21.32617 0,0 -19.6486939,4.7792 -20.5363107,12.79571 -0.5368105,4.8482 8.0625258,9.3235 10.4261272,10.26815 3.764892,1.50469 2.5140504,3.10352 0.6318865,3.3174 2.5238107,5.17595 9.362379,2.68782 5.2130634,-3.00145"
       id="path4"
       sodipodi:nodetypes="csscccscsscc" /><path
       style="fill:none;stroke:#ffffff;stroke-width:1;stroke-linejoin:round;stroke-miterlimit:3.9;stroke-dasharray:none"
       d="m 8.2571563,223.91127 -2.7072646,26.23995 31.2012223,0.33841 -5.685255,-6.70048 1.827403,-16.58199"
       id="path5"
       sodipodi:nodetypes="ccccc" /><path
       style="fill:none;stroke:#ffffff;stroke-width:1;stroke-linecap:round;stroke-linejoin:round;stroke-miterlimit:3.9;stroke-dasharray:none"
       d="m 3.7445846,223.53748 -3.60238518,3.64979 2.03819158,1.94339 4.7399805,-4.69258"
       id="path6" /><path
       style="fill:none;stroke:#ffffff;stroke-width:1;stroke-linecap:round;stroke-linejoin:round;stroke-miterlimit:3.9;stroke-dasharray:none"
       d="m 9.0059631,222.25769 4.1711829,-3.69719 -1.990792,-2.13299 -3.0335875,2.84399"
       id="path7" /><path
       style="fill:none;stroke:#ffffff;stroke-width:1;stroke-linecap:round;stroke-linejoin:round;stroke-miterlimit:3.9;stroke-dasharray:none"
       d="m 13.129746,218.2761 2.322591,2.0856 2.038191,-2.0382 c -5.687977,-5.97237 -9.3377616,-4.97698 -9.3377616,-4.97698 z"
       id="path8"
       sodipodi:nodetypes="ccccc" /><circle
       style="fill:none;stroke:#ffffff;stroke-width:1;stroke-linecap:round;stroke-linejoin:round;stroke-miterlimit:3.9;stroke-dasharray:none"
       id="path9"
       cx="36.170803"
       cy="179.68471"
       r="1.0134062" /><circle
       style="fill:none;stroke:#ffffff;stroke-width:1;stroke-linecap:round;stroke-linejoin:round;stroke-miterlimit:3.9;stroke-dasharray:none"
       id="path10"
       cx="47.006458"
       cy="181.00995"
       r="1.714995" /><circle
       style="fill:none;stroke:#ffffff;stroke-width:1;stroke-linecap:round;stroke-linejoin:round;stroke-miterlimit:3.9;stroke-dasharray:none"
       id="path11"
       cx="65.949356"
       cy="193.24876"
       r="12.784509" /><path
       style="fill:none;stroke:#ffffff;stroke-width:1;stroke-linecap:round;stroke-linejoin:round;stroke-miterlimit:3.9;stroke-dasharray:none"
       d="m 62.519366,190.83218 c 0,-4.86364 6.782028,-4.56854 6.782028,0 0,2.28701 -2.279097,3.1687 -3.391014,3.1687 v 2.36606"
       id="path12"
       sodipodi:nodetypes="cccc" /><path
       style="color:#000000;fill:#ffffff;stroke-linecap:round;stroke-linejoin:round;stroke-miterlimit:3.9;-inkscape-stroke:none"
       d="m 65.910156,198.7207 a 0.5,0.5 0 0 0 -0.5,0.5 0.5,0.5 0 0 0 0.5,0.5 0.5,0.5 0 0 0 0.5,-0.5 0.5,0.5 0 0 0 -0.5,-0.5 z"
       id="path13" /><path
       style="fill:none;stroke:#ffffff;stroke-width:1;stroke-linecap:round;stroke-linejoin:round;stroke-miterlimit:3.9;stroke-dasharray:none"
       d="m 21.236472,231.16583 -0.277526,18.80109"
       id="path14"
       sodipodi:nodetypes="cc" /><path
       style="fill:none;stroke:#ffffff;stroke-width:0.5;stroke-linecap:round;stroke-linejoin:round;stroke-miterlimit:3.9;stroke-dasharray:none"
       d="m 28.94555,213.78406 0.01183,14.94339"
       id="path15"
       sodipodi:nodetypes="cc" /><path
       style="color:#000000;fill:#ffffff;stroke-linecap:round;stroke-linejoin:round;stroke-miterlimit:3.9;-inkscape-stroke:none"
       d="m 23.355419,181.88826 a 0.5,0.5 0 0 0 -0.5,0.5 0.5,0.5 0 0 0 0.5,0.5 0.5,0.5 0 0 0 0.5,-0.5 0.5,0.5 0 0 0 -0.5,-0.5 z"
       id="path16" /><path
       style="color:#000000;fill:#ffffff;stroke-linecap:round;stroke-linejoin:round;stroke-miterlimit:3.9;-inkscape-stroke:none"
       d="m 19.274828,183.12701 a 0.5,0.5 0 0 0 -0.5,0.5 0.5,0.5 0 0 0 0.5,0.5 0.5,0.5 0 0 0 0.5,-0.5 0.5,0.5 0 0 0 -0.5,-0.5 z"
       id="path17" /><path
       style="fill:none;stroke:#ffffff;stroke-width:1;stroke-linecap:round;stroke-linejoin:round;stroke-miterlimit:3.9;stroke-dasharray:none"
       d="m 24.192076,190.6219 -2.040295,-0.87441 -1.384487,1.82169 -2.404634,-1.09301 -2.186031,0.94728"
       id="path18" /></g></svg>
